<?xml version="1.0" encoding="UTF-8" standalone="no"?>
<!-- Created with Inkscape (http://www.inkscape.org/) -->

<svg
   xmlns:dc="http://purl.org/dc/elements/1.1/"
   xmlns:cc="http://creativecommons.org/ns#"
   xmlns:rdf="http://www.w3.org/1999/02/22-rdf-syntax-ns#"
   xmlns:svg="http://www.w3.org/2000/svg"
   xmlns="http://www.w3.org/2000/svg"
   version="1.1"
   width="260"
   height="500"
   id="svg6359">
  <defs
     id="defs6361" />
  <metadata
     id="metadata6364">
    <rdf:RDF>
      <cc:Work
         rdf:about="">
        <dc:format>image/svg+xml</dc:format>
        <dc:type
           rdf:resource="http://purl.org/dc/dcmitype/StillImage" />
        <dc:title></dc:title>
      </cc:Work>
    </rdf:RDF>
  </metadata>
  <path
     d="M 51.638204,13.196567 42.82886,4.5969746 40.521649,4.8067271 33.809778,0.40204357 l -2.097458,0 -1.258478,2.72670813 -8.180102,7.1313693 -11.116555,1.677975 3.985178,5.872884 5.453401,0.62925 4.824159,5.243657 4.404684,-0.419498 1.258462,9.43858 -1.048725,4.824158 23.281821,-0.629235 -3.146183,-4.824173 1.88772,-1.677961 -0.419498,-17.199191 z"
     id="nvo_laredo"
     style="fill:#cddae0;fill-opacity:1;fill-rule:evenodd;stroke:none" />
  <path
     d="m 30.873332,38.366115 8.80933,17.828419 -5.243649,11.116548 -2.516956,2.30721 2.726708,2.726709 7.341107,2.30721 3.146198,4.404661 -5.663146,13.423751 5.453394,0.209752 14.053001,8.599595 0.41949,3.35593 21.18437,-3.77542 L 74.500535,81.15433 59.818306,62.906421 59.608561,50.741141 53.525925,38.156363 30.873332,38.366115 z"
     id="guerrero"
     style="fill:#cddae0;fill-opacity:1;fill-rule:evenodd;stroke:none" />
  <path
     d="m 81.002669,102.12896 -21.394108,4.40466 -2.516963,6.92163 2.936446,12.79451 6.292396,0.4195 10.487305,5.24366 4.614421,-0.83899 2.097451,-2.51696 -0.209738,-7.55086 3.355936,-5.03391 0,-6.50214 -2.7267,-1.25846 -2.936446,-6.08264 z"
     id="mier"
     style="fill:#cddae0;fill-opacity:1;fill-rule:evenodd;stroke:none" />
  <path
     d="m 87.504803,117.23068 -2.936453,4.82416 0,8.38985 -1.887721,1.67796 -4.614406,1.04873 1.048733,7.76062 1.67796,9.01908 11.955543,-4.19492 2.936446,-13.42375 -1.258485,-1.46823 1.677975,-9.85807 -1.258478,-2.30721 -2.936446,-2.09747 -4.404668,0.62925 z"
     id="m_aleman"
     style="fill:#cddae0;fill-opacity:1;fill-rule:evenodd;stroke:none" />
  <path
     d="m 96.943383,118.48915 0.838972,2.51696 -1.67796,9.43858 1.67796,2.51695 -3.775426,13.84324 8.389851,8.80935 1.88771,0 4.82417,-5.87289 5.66314,-0.20975 0.20975,-11.11654 3.14619,-11.11655 -7.97034,-6.08265 -6.7119,-0.20974 -6.502117,-2.51696 z"
     id="camargo"
     style="fill:#cddae0;fill-opacity:1;fill-rule:evenodd;stroke:none" />
  <path
     d="m 118.96673,127.92773 -2.72671,10.69706 0.20976,10.9068 9.64831,0.41949 2.09747,-1.46822 -0.41949,-3.77543 7.34111,-12.16529 -6.08263,0 -10.06782,-4.61441 z"
     id="g_diaz_ordaz"
     style="fill:#cddae0;fill-opacity:1;fill-rule:evenodd;stroke:none" />
  <path
     d="m 136.58541,132.96164 -7.13138,11.95553 0.4195,4.19492 -2.30721,1.88772 3.77542,48.45137 16.15048,0.20975 5.24365,2.51696 6.50213,-4.40468 4.19492,1.67797 1.88771,-5.4534 0,-3.98517 -2.93645,-10.69706 -0.41949,-24.9598 2.30721,-7.55087 -5.45339,-0.41949 -10.69707,-7.55086 -2.93643,-0.41948 -8.5996,-5.45341 z"
     id="reynosa"
     style="fill:#cddae0;fill-opacity:1;fill-rule:evenodd;stroke:none" />
  <path
     d="m 165.94988,147.22438 c -0.4195,0.83899 -2.51696,7.76061 -2.51696,7.76061 l 0.20975,23.70132 3.1462,10.9068 -0.4195,4.61442 -1.25848,5.4534 19.29665,5.66314 4.40467,-2.7267 0.20975,-3.14619 -8.80934,-7.55086 -1.04874,-7.13137 -0.41949,-9.22884 2.51695,-4.82416 0.20976,-11.74578 1.25847,-1.46822 -0.4195,-10.27757 -16.36019,0 z"
     id="rio_bravo"
     style="fill:#cedae0;fill-opacity:1;fill-rule:evenodd;stroke:none" />
  <path
     d="m 184.40754,158.13118 -1.46822,1.67798 -0.20975,12.16528 -2.51695,3.98517 0.20973,8.59959 1.04875,6.2924 8.59959,7.7606 6.92161,-5.03392 0,-9.22882 1.25848,-1.04873 -0.41949,-17.19919 -13.42375,-7.97036 z"
     id="v_hermoso"
     style="fill:#cddae0;fill-opacity:1;fill-rule:evenodd;stroke:none" />
  <path
     d="m 142.66804,249.16103 0.20976,-7.34112 4.61442,-7.13137 1.88771,-0.83897 5.87288,-9.64834 2.51696,-0.41949 8.18011,-5.66315 0,-2.09746 9.01908,-11.53604 -15.31148,-4.82416 -6.50212,4.40467 -5.66314,-2.51696 -4.61442,-0.41949 0.41949,2.7267 -3.77543,5.03391 -2.72671,0.83899 -28.94496,26.21827 4.19492,0.41949 4.82416,2.93644 0,2.72671 5.24365,-0.62923 0.20974,-1.67798 4.82417,0.20974 7.97035,9.64833 7.55086,-0.41949 z"
     id="mendez"
     style="fill:#cddae0;fill-opacity:1;fill-rule:evenodd;stroke:none" />
  <path
     d="m 106.17221,265.52123 13.42377,2.09746 3.98517,-5.24365 2.51694,-0.41949 3.56569,-3.56569 13.84325,-4.61441 -0.83899,-2.72671 -8.1801,0.20975 -8.18009,-9.85806 -2.30721,0 -0.41949,1.25847 -7.55087,0.41949 -1.25848,-3.35594 -3.14618,-2.09746 -7.76062,-0.41949 -0.83899,1.88772 -3.565679,0 -4.614414,-4.61443 -5.453394,5.03392 -2.516963,-0.41949 -6.502126,7.97035 5.663146,9.64832 4.404669,1.25848 6.292381,-3.14619 6.50213,9.64831 2.93645,1.04874 z"
     id="burgos"
     style="fill:#cddae0;fill-opacity:1;fill-rule:evenodd;stroke:none" />
  <path
     d="m 122.11292,267.82844 4.61442,5.03391 -0.41949,2.30721 -3.56569,5.66315 3.35593,5.03391 0.41949,3.35593 3.1462,2.72671 25.58903,3.98517 5.24366,0.20974 9.43858,-9.64832 -0.20974,-1.04873 -7.34113,-5.66315 -3.98517,0 -4.61441,-2.51696 0.83899,-2.72669 0.20973,-2.30721 -10.69705,-17.1992 -14.05299,4.82418 -2.51696,3.14618 -2.93645,0.62925 -2.51695,4.19492 z"
     id="cruillas"
     style="fill:#cddae0;fill-opacity:1;fill-rule:evenodd;stroke:none" />
  <path
     d="m 96.104395,257.13139 c -1.048725,0 -5.663146,2.7267 -5.663146,2.7267 l -5.453409,-2.09747 -4.614406,0.41949 0,8.1801 2.307195,2.09747 0,22.02336 c 0,0 -3.146183,3.77542 -3.146183,4.6144 0,0.83899 0.209745,4.61442 0.209745,4.61442 l 2.726701,2.09746 0.209737,1.67797 9.648333,12.58478 -1.258478,2.30721 -3.146184,0.62923 0.209738,1.46822 4.824159,0 3.565696,2.72671 2.09745,0 3.985187,-1.67798 1.25847,-3.56568 12.16528,0.20975 6.71188,2.93643 -3.14618,-3.98517 0.20973,-11.74579 -1.25848,-0.83898 -0.20974,-3.35594 5.66315,-6.29238 c 0,0 -1.04873,-2.09747 -1.88772,-2.09747 -0.83898,0 -6.71188,-0.20974 -6.71188,-0.20974 l -4.19492,-1.04873 -2.7267,-3.1462 -6.92163,-23.28182 -5.453395,-7.97035 z"
     id="s_carlos"
     style="fill:#cddae0;fill-opacity:1;fill-rule:evenodd;stroke:none" />
  <path
     d="m 103.865,266.36021 5.8729,20.76488 2.72669,3.35595 10.90681,1.04872 1.46822,1.67796 0.83898,-1.04872 1.67797,-0.62924 -2.7267,-2.30721 -0.20974,-3.35593 -3.98518,-5.24366 4.40467,-5.66315 0.20974,-1.67797 -4.61441,-4.19493 -16.56995,-2.7267 z"
     id="s_nicolas"
     style="fill:#cddae0;fill-opacity:1;fill-rule:evenodd;stroke:none" />
  <path
     d="m 80.792916,268.87718 -7.131369,-6.50214 -4.824159,5.24365 -6.711879,4.61442 0,9.43858 -1.258477,1.25848 -0.419498,6.92162 -11.326293,0.41949 -3.355936,2.93644 0,3.77544 2.516964,4.40467 26.847501,-2.7267 3.146198,1.67796 0,-6.71187 2.726701,-3.77543 -0.209753,-20.97461 z"
     id="villagran"
     style="fill:#cddae0;fill-opacity:1;fill-rule:evenodd;stroke:none" />
  <path
     d="m 60.447534,281.04246 c -0.209738,-1.88772 -0.209738,-7.76062 -0.209738,-7.76062 l -9.438579,6.92163 -10.697058,2.7267 -1.468223,4.82416 -2.097458,1.88772 0.629235,1.88771 6.71188,2.30721 4.614413,-5.03391 10.906803,0 -0.41949,-6.50214 1.468215,-1.25846 z"
     id="mainero"
     style="fill:#cddae0;fill-opacity:1;fill-rule:evenodd;stroke:none" />
  <path
     d="m 74.500535,300.33909 c -1.048725,0.20975 -25.798784,2.51697 -25.798784,2.51697 l -6.711879,24.33055 5.453409,5.66314 0.41949,2.09748 6.292381,0.83897 0.419498,5.03391 8.809345,0.41949 6.292381,-4.61441 11.74579,-3.14618 0.629228,-3.5657 3.355943,-0.83899 0.41949,-10.69704 3.565696,-1.25849 0.838973,-1.46822 -9.01909,-11.53604 -0.41949,-1.67796 -6.292381,-2.09748 z"
     id="hidalgo"
     style="fill:#cddae0;fill-opacity:1;fill-rule:evenodd;stroke:none" />
  <path
     d="m 156.30155,297.82214 -28.52548,-4.82415 -7.55087,8.59959 0.20975,2.09745 1.25848,1.04875 -0.41949,12.16526 6.92162,9.43858 2.72671,9.43858 5.66314,3.35595 4.61441,-16.56996 12.37503,-6.29238 0.41949,-12.16528 2.30721,-6.29239 z"
     id="jimenez"
     style="fill:#cddae0;fill-opacity:1;fill-rule:evenodd;stroke:none" />
  <path
     d="m 141.19982,351.72691 22.65259,-13.00426 0,-4.82417 8.59959,-10.27755 3.35595,0 0.20974,-6.92163 3.56569,-4.19493 -2.93646,-4.82416 0.20976,-6.29238 1.46822,-2.30721 -7.13137,-0.41949 -5.66315,-5.03391 -3.98518,4.19492 -3.35594,0.20974 -2.93645,6.2924 -0.20973,13.42375 -12.58478,6.08264 -3.56569,15.31148 2.51696,3.35594 -3.98518,9.85807 3.77543,-0.62925 z"
     id="abasolo"
     style="fill:#cddae0;fill-opacity:1;fill-rule:evenodd;stroke:none" />
  <path
     d="m 86.87556,321.10398 0,7.7606 18.03816,13.00426 7.76062,7.34112 3.56569,9.64833 2.93645,-0.20975 2.51695,-6.92163 -0.20974,-5.24365 3.77543,-9.22883 4.61441,-0.20975 -2.93645,-10.06781 -4.40467,-4.61442 -6.92162,-2.72671 -10.9068,0 -1.04873,2.93645 -6.082642,2.30721 -1.887713,-0.20974 -3.146198,-2.93645 -5.663147,-0.62923 z"
     id="padilla"
     style="fill:#cddae0;fill-opacity:1;fill-rule:evenodd;stroke:none" />
  <path
     d="m 54.99414,342.49809 -0.209752,1.88771 c 0,0 4.194931,2.09746 4.194931,2.93645 0,0.83898 0.41949,3.77543 0.41949,3.77543 l 1.677975,2.51695 5.243656,1.67797 1.677961,-2.09746 -4.614406,-4.40467 18.038171,-10.69706 13.633504,17.82843 2.936438,0.62923 6.711882,10.48732 11.32629,-6.92163 -4.61442,-10.06781 -8.1801,-7.97036 -16.779697,-11.53605 c 0,0 -2.726686,-0.83897 -3.146184,0.62925 -0.419497,1.46823 -0.838987,3.35594 -0.838987,3.35594 l -12.584778,3.77543 -5.872884,4.61442 -9.01909,-0.41949 z"
     id="guemez"
     style="fill:#cddae0;fill-opacity:1;fill-rule:evenodd;stroke:none" />
  <path
     d="m 81.212406,340.19088 c 0,0 -15.940698,7.7606 -14.891966,9.01907 1.048726,1.25848 3.775426,4.40468 3.775426,4.40468 l 4.614421,2.51696 -0.62925,2.09746 -1.468215,1.04872 0.629227,5.03391 3.985186,5.4534 1.258486,18.03819 5.453394,1.88771 11.326292,-13.21401 0,-3.35595 7.970353,-5.0339 -6.08264,-10.27757 -3.146191,-0.83899 -12.794523,-16.77968 z"
     id="victoria"
     style="fill:#cddae0;fill-opacity:1;fill-rule:evenodd;stroke:none" />
  <path
     d="m 135.32693,353.19514 4.61442,-9.85808 -2.30721,-2.51695 -6.08264,-2.51695 -5.45341,0.41949 -2.93644,7.97036 0.4195,5.87289 -3.35595,7.34112 -2.93644,0.83898 -20.55513,13.00426 0.41949,1.88773 9.01909,0.41949 7.76061,7.3411 -0.62924,2.09747 -2.30721,2.51695 2.51696,2.51695 5.4534,-0.41949 3.35593,5.66315 0,4.82417 -1.46822,0.83897 0.4195,2.72671 2.09746,3.98518 6.50213,-8.18011 8.80934,-3.98517 1.88772,1.88772 2.09745,4.61441 6.92163,3.35595 0,3.77542 4.82416,10.06782 0,-5.03391 3.35594,-1.04874 -0.20975,-2.7267 0.62924,-1.46822 0,-3.35594 5.8729,-3.56568 0.62923,-2.51696 -10.90679,-2.30721 -6.50214,-11.11654 0.20976,-3.98519 -6.2924,-8.80933 0.20975,-2.93643 -1.67797,-1.67798 0,-7.13137 3.1462,-2.72671 -2.51695,-5.87288 -5.03392,-0.20975 z"
     id="casas"
     style="fill:#cddae0;fill-opacity:1;fill-rule:evenodd;stroke:none" />
  <path
     d="m 57.930586,352.35616 -5.663146,6.08263 -7.970357,-0.41949 -0.209738,17.82842 5.663146,13.00427 7.760605,0.4195 0.629235,25.79877 1.04874,0.20975 0,3.14618 7.970357,3.77544 1.67796,-6.50212 9.43858,-2.09748 5.033911,-10.90679 -1.677975,-0.83899 0.41949,-11.53604 -4.824159,-1.88771 -1.258477,-18.45766 -4.404669,-4.82417 -0.629235,-5.8729 1.88772,-2.30721 -3.565695,-2.51694 -2.307204,2.30721 -7.341114,-2.30721 -1.677975,-2.09746 z"
     id="jaumave"
     style="fill:#cddae0;fill-opacity:1;fill-rule:evenodd;stroke:none" />
  <path
     d="m 42.619122,358.22905 -4.824173,-0.4195 -8.38984,4.40467 -2.516963,0.20975 -0.838973,4.19493 -5.033911,11.74579 3.355936,2.51694 1.468223,3.1462 1.258478,-2.09746 7.970356,0.41949 3.985171,-2.51695 1.677976,0.62923 2.516955,8.1801 2.097451,2.51696 2.936461,-1.88771 -5.663147,-13.42377 0,-17.61867 z"
     id="miquihuana"
     style="fill:#cddae0;fill-opacity:1;fill-rule:evenodd;stroke:none" />
  <path
     d="m 19.756777,380.04265 -2.726701,2.51694 c 0,0 5.033911,5.45341 5.033911,6.2924 0,0.83899 -0.209737,4.40467 -0.209737,4.40467 l -4.824174,1.04872 -12.3750253,-0.20973 -1.8877129,1.67796 3.9851859,3.1462 -0.4194976,9.85807 -1.4682228,3.98517 4.8241586,4.82417 3.7754331,-2.7267 0.209745,-3.56569 5.872899,-2.09746 c 0,0 3.355936,3.1462 4.194924,2.7267 0.838972,-0.41949 6.921616,-3.98518 6.921616,-3.98518 l 2.516963,3.77543 3.355936,0.4195 4.824159,-11.95554 3.775433,-7.55086 -2.936445,-2.7267 -2.936454,-8.59959 -3.355935,2.09745 -7.97035,-0.20974 -2.097465,3.56569 -2.936446,-5.24366 -3.146198,-1.46822 z"
     id="bustamante"
     style="fill:#cddae0;fill-opacity:1;fill-rule:evenodd;stroke:none" />
  <path
     d="m 55.833128,390.94945 -6.502134,-0.4195 -2.936438,1.67798 -6.292397,15.10172 10.067823,4.19493 2.726693,4.40466 5.033911,3.77544 -0.41949,-3.1462 -1.258486,-1.46822 -0.419482,-24.12081 z"
     id="palmillas"
     style="fill:#cddae0;fill-opacity:1;fill-rule:evenodd;stroke:none" />
  <path
     d="m 10.318197,419.26519 1.88772,2.93644 0,4.40468 -1.468222,1.46822 0.209752,4.82416 -4.1949233,3.35594 5.2436483,3.35593 1.258471,3.35594 0.209752,10.27757 14.262739,0.41949 0.629235,2.30721 0,4.19493 6.921631,1.46822 6.082637,-1.67797 3.565681,0 c 0,0 2.097465,3.35593 2.936453,3.56568 0.83898,0.20974 2.726693,-0.62923 2.726693,-0.62923 l 1.468238,1.88772 3.985171,0.20974 0.41949,-5.24366 -2.936438,-5.66315 -0.20976,-9.22883 0.838987,-1.25847 0,-9.01908 3.355944,-4.40469 -0.419498,-9.64831 -6.082636,-4.61443 -2.097458,-3.14619 -9.43858,-3.98517 -2.097473,5.03391 -5.033896,-1.04874 -2.307211,-2.93644 -7.341122,3.56569 -3.56568,-2.30721 -4.194924,1.46822 0.209745,3.77543 -4.824166,2.93645 z"
     id="tula"
     style="fill:#cddae0;fill-opacity:1;fill-rule:evenodd;stroke:none" />
  <path
     d="m 58.559821,419.89443 0.209753,11.53604 -2.936446,3.35593 -0.209753,9.01909 -0.838987,2.09747 0.209752,6.29238 2.307211,-2.09747 2.30721,3.1462 2.726693,3.77543 1.468223,2.93645 4.194924,0.83898 1.468223,-0.83898 2.936453,4.40467 9.019089,-1.04874 0.419491,-3.56568 1.67796,-4.40466 6.292396,-6.7119 -1.258477,-0.83897 -0.20976,-5.45341 -1.048726,-3.98517 -1.887713,-2.09746 -1.88772,0 -4.194924,-3.98517 -0.629235,-2.51697 -4.194923,3.98519 -3.355936,-1.67798 -3.355936,-4.19493 -1.468223,-3.98517 -7.760619,-3.98517 z"
     id="ocampo"
     style="fill:#cddae0;fill-opacity:1;fill-rule:evenodd;stroke:none" />
  <path
     d="m 105.12348,377.73544 c -2.09747,0 -8.180097,-0.41949 -8.180097,-0.41949 l -13.004268,14.47249 -0.629236,9.43858 1.677961,1.25847 -0.209738,1.46823 -4.824158,10.27756 7.970356,3.77544 4.194909,-3.1462 3.775433,0 6.082648,-4.19492 c 0,0 4.40467,3.98517 5.24365,3.98517 0.83898,0 6.29239,0.62924 6.29239,0.62924 l 6.71187,5.24366 6.71188,2.51694 7.97036,0.4195 -0.4195,-2.93644 3.77543,-2.30721 7.55087,-3.35594 0,-2.09747 2.3072,-1.88772 -0.20973,-4.19491 -6.92163,-3.56569 -0.83899,-2.93645 -1.88772,-2.3072 -7.55085,2.93644 -7.34112,9.22884 -3.77542,-5.24366 -0.62925,-3.77543 1.67797,-1.88771 0.62924,-2.93646 -3.35594,-4.82416 -5.45341,0.62923 -3.56568,-4.1949 2.72671,-2.93647 0,-1.25846 -6.50214,-5.8729 z"
     id="llera"
     style="fill:#cddae0;fill-opacity:1;fill-rule:evenodd;stroke:none" />
  <path
     d="m 78.695458,415.28001 c -0.838987,0.20974 -9.228834,1.04873 -9.228834,1.88772 0,0.83899 -1.468223,7.13137 -1.468223,7.13137 l 0.62925,2.30721 2.936438,4.19492 2.726708,1.67796 4.824159,-5.03389 1.887713,3.98517 2.936446,3.56567 1.468222,-0.20974 3.985186,3.98518 0.41949,2.7267 6.502119,1.67797 0.419498,-4.82416 1.258478,-1.04874 -0.209753,-7.7606 -5.033896,-1.67798 -3.355936,-4.19491 -2.097473,-4.19492 -8.599592,-4.19493 z"
     id="g_farias"
     style="fill:#cddae0;fill-opacity:1;fill-rule:evenodd;stroke:none" />
  <path
     d="m 101.76754,412.55331 -5.03391,3.56569 -3.775433,0 -3.775434,2.93644 1.048733,3.98517 3.565688,3.5657 5.872892,2.51695 -0.209745,9.22883 -1.258478,1.04874 0,3.77542 9.648337,3.56568 1.46822,-6.92161 4.40466,-4.82418 1.88772,0.20975 1.25848,-1.67797 0.20974,-9.64832 1.46822,-2.51695 -5.0339,-4.40467 -6.71189,-0.83898 -5.0339,-3.56569 z"
     id="xicotencatl"
     style="fill:#cddae0;fill-opacity:1;fill-rule:evenodd;stroke:none" />
  <path
     d="m 125.6786,424.50884 -5.4534,-2.51695 -1.46821,1.88771 -0.4195,10.69707 -1.46822,2.09745 -2.30721,0.20974 -4.19493,3.98519 -0.62923,6.50213 3.35593,5.24365 0.4195,4.82416 -1.67797,1.46822 0,3.98519 5.03391,3.14618 8.18009,-3.56567 12.79452,3.56567 0,3.5657 5.66315,8.38984 -0.4195,5.03391 9.22885,0 1.25847,2.09746 5.87289,-1.04874 -0.83898,-10.4873 -2.72671,-3.56568 -0.62924,-9.43858 2.93645,-3.98519 0,-9.22882 -1.67796,-1.04874 0,-9.64832 -1.46822,-2.09745 -0.62925,-13.42377 -5.4534,-9.01908 -1.46821,0.41949 0.20973,3.56569 -12.16528,5.0339 1.04874,3.56569 -10.90681,-0.20975 z"
     id="gonzalez"
     style="fill:#cddae0;fill-opacity:1;fill-rule:evenodd;stroke:none" />
  <path
     d="m 90.021751,442.9665 0,3.98518 1.677975,1.88772 6.711879,13.42376 0.629236,3.35593 7.760599,13.42377 1.88772,1.25846 0.20975,3.5657 -1.46822,2.3072 6.08264,0.83899 18.03817,-3.77543 10.06781,0 0.4195,-4.82417 -6.08265,-8.5996 0,-2.93644 -10.9068,-3.35594 -8.18009,3.98517 -6.92163,-3.56567 0,-5.45341 2.30721,-1.88772 -0.41949,-3.56567 -3.56568,-4.82418 -10.487325,-3.35593 -1.67796,0.41949 -6.082644,-2.30721 z"
     id="mante"
     style="fill:#cddae0;fill-opacity:1;fill-rule:evenodd;stroke:none" />
  <path
     d="m 90.441249,450.09788 c -1.258471,1.04873 -5.453409,5.66313 -5.453409,5.66313 l -1.468223,3.98519 0,3.35594 12.584778,19.29665 0.209737,2.93644 9.648328,0.20976 1.67797,-2.09747 -0.83899,-2.30721 -1.67796,-1.88772 -7.97036,-14.26273 -0.41949,-2.93645 -6.292381,-11.95553 z"
     id="a_morelos"
     style="fill:#cddae0;fill-opacity:1;fill-rule:evenodd;stroke:none" />
  <path
     d="m 72.822574,466.03858 6.292382,13.00428 0.41949,3.56567 7.970357,0.20975 c 0,0 2.30721,3.14619 3.146183,3.14619 0.838988,0 3.985186,-0.20974 3.985186,-0.20974 l 0.209745,-3.1462 -12.375025,-18.45766 -9.648318,1.88771 z"
     id="n_morelos"
     style="fill:#cddae0;fill-opacity:1;fill-rule:evenodd;stroke:none" />
  <path
     d="m 197.62155,464.78012 c -2.30721,-0.20976 -4.40468,-0.20976 -4.40468,-0.20976 l -5.66315,-6.08264 -1.25847,2.09747 -4.40467,-0.83899 -4.40467,-12.79452 -2.7267,-0.62924 -5.4534,3.56569 -4.19492,8.18009 -5.66315,-8.80932 0.4195,8.38983 -2.93645,3.1462 0.4195,8.38985 3.14618,4.61442 0.20975,4.19492 5.4534,-0.41949 16.56995,8.59959 10.9068,0 0,-1.25848 7.13137,0 -3.14619,-20.13562 z"
     id="altamira"
     style="fill:#cddae0;fill-opacity:1;fill-rule:evenodd;stroke:none" />
  <path
     d="m 184.19779,488.06194 9.43858,11.11654 5.4534,0.41949 0.83899,-2.09745 -7.13137,-10.06782 -8.5996,0.62924 z"
     id="tampico"
     style="fill:#cddae0;fill-opacity:1;fill-rule:evenodd;stroke:none" />
  <path
     d="m 200.97749,486.80345 -6.29238,-0.20973 5.87288,9.43858 3.77544,-2.51697 -3.35594,-6.71188 z"
     id="c_madero"
     style="fill:#cddae0;fill-opacity:1;fill-rule:evenodd;stroke:none;" />
  <path
     d="m 184.71987,147.36341 c -0.0458,0.27132 -0.026,0.91219 0.0236,1.67774 l 0.33025,3.54191 c 0.23532,2.16105 0.49537,4.17107 0.49537,4.17107 l 14.34214,8.76155 0.4246,19.57369 -1.46253,0.41943 0.21231,8.55185 -8.23258,6.24493 0,3.3322 -4.22243,2.72634 16.81898,10.08976 -0.0943,0.39613 1.27381,0.81558 c 0.59108,-0.008 1.26486,0.38923 1.86353,0.60586 0.0153,0.005 0.0318,0.0179 0.0472,0.0233 l 0.56614,0.34953 -0.0236,-0.23302 c 0.37144,0.006 0.69098,-0.1811 0.89638,-0.76897 0.39867,-1.13954 -0.54254,-1.91483 -0.54254,-3.26228 0,-2.47798 0.68889,-2.63313 2.7835,-2.63313 0.849,0 3.13339,-0.27279 3.75067,0 1.10598,0.48982 1.31361,2.22047 1.60405,3.16907 0.73461,2.39502 0.89699,2.20456 2.66556,2.72634 1.06262,0.31387 0,1.33299 0,2.65644 0.12851,0.0581 2.84305,2.01795 3.30246,0.51263 0.54134,-1.77124 -1.92222,-3.70502 0.54255,-3.70502 1.08678,0 4.78906,0.38185 5.35472,0 0.29648,-0.20001 0,-0.78592 0,-1.1418 0,-1.06855 0.34101,-2.1575 0,-3.16907 -0.0911,-0.27787 -1.46747,0.58674 -1.60406,-1.04859 -0.30966,-3.68547 4.75779,-1.04372 5.96803,0.51265 0.65773,0.84865 -2.17376,3.96608 -2.66556,4.24097 -0.62939,0.34986 -1.17946,1.21478 -1.17946,2.19039 0,1.32244 0.63691,1.04309 0.63691,2.65641 -0.18734,3.33962 -0.77863,11.22846 -2.75992,12.79282 -1.44903,1.14452 -1.08509,2.7757 -1.08509,4.84682 0,3.46754 -3.20545,7.92415 -5.35471,10.64902 -1.85279,2.34701 -1.15587,13.53335 -1.15587,17.63962 2.50656,-2.47597 3.17154,-2.93179 1.15587,-5.38276 -0.56263,-0.68473 0.51115,-1.81862 0.54255,-2.12049 0.16705,-1.60833 -0.64359,-5.5466 0,-6.94399 0.82568,-1.79726 2.60317,-4.35428 3.75065,-6.36145 1.47434,-2.57892 2.59596,-3.17669 4.26961,-5.38277 6.8222,-8.1836 14.10625,-29.2856 14.10625,-35.7919 0,-17.48369 15.16777,-24.22314 15.16777,-40.00955 0,-5.71856 -0.0977,-10.63755 -0.35383,-15.0764 -5.02823,0.72765 -10.71436,2.69036 -13.28065,4.75361 -2.50575,-0.038 -5.25865,-0.008 -5.70855,0.32623 -0.50206,0.37195 -1.51361,1.21563 -2.3825,1.93405 -0.60296,0.0642 -1.11554,0.2374 -1.46251,0.65247 -0.1021,0.1221 -0.20458,0.23383 -0.30666,0.34953 l -3.01939,0 -0.58973,2.84284 c -4.47166,2.06009 -8.75221,-1.15831 -12.24272,-6.10512 -4.52916,-6.42054 -15.92764,-6.06623 -25.64128,-5.96531 l -7.52492,-1.63115 z"
     id="matamoros"
     style="fill:#cedae0;fill-opacity:1;fill-rule:evenodd;stroke:none" />
  <path
     d="m 177.33649,204.89608 -9.69509,11.4646 0,2.91275 -9.29409,5.84881 -2.31173,0.62915 -5.49624,8.73825 -2.09943,1.25831 -4.01013,6.45466 0.8492,10.62572 11.1812,19.17756 0,3.75161 -1.9107,0.62917 3.58553,1.67773 5.07165,-0.20971 8.65718,6.24494 0,2.70304 -4.85935,5.8488 4.85935,3.96135 7.80797,0.62914 0.2123,2.91276 -1.48611,1.44472 0,2.93605 12.66732,-8.97127 0.16513,-0.46605 2.3589,0.27962 0.70767,-0.27962 c 0.58574,-2.10115 0.9165,-6.75757 1.81636,-6.75757 5.30288,0 5.21535,5.06085 6.20391,9.64702 l 0.91998,0.25634 c 0.0556,-0.12142 0.17534,-0.35129 0.1887,-0.37285 1.65445,-2.61388 -2.09971,-3.6581 1.50971,-7.22362 8.66487,0.84166 1.63627,8.29566 2.50044,11.37139 0.94612,3.36858 1.22357,3.82348 1.60405,7.47994 0.0811,0.7677 0.54255,0.74009 0.54255,2.12048 0,4.24723 2.24096,2.63509 2.24096,5.91872 0,6.58725 1.7832,16.45456 2.66556,4.21766 0.47764,-6.62623 -3.75065,-10.6354 -3.75065,-18.15227 0,-2.14211 1.96877,-1.16707 2.68915,-3.70502 2.03288,-7.15599 -1.37073,-13.13157 2.1466,-18.68821 0.39668,-0.62676 2.12302,-7.50427 2.12302,-8.55184 0,-3.48854 -1.52757,-4.94842 -4.81216,-2.72633 -1.4278,0.9646 -1.80258,11.29544 -2.14661,13.9113 -0.35215,2.67688 -3.82143,0.95018 -3.82143,-3.16908 0,-6.92509 3.82143,-4.71785 3.82143,-10.22959 0,-1.32339 -3.06267,-3.45197 1.08509,-4.21766 1.88414,-0.34786 3.75066,-2.15005 3.75066,-4.33417 -2.17759,-0.134 -2.90079,0.76167 -3.23171,-1.04859 -0.12335,-0.67273 -0.39346,-1.91333 -0.51895,-0.53594 -0.0302,0.36287 0.0811,3.19728 0,3.26227 -0.97648,0.82066 -1.7866,0.13598 -2.24096,-1.04858 -0.46649,-1.2205 -1.6139,-3.97236 -1.06151,-5.38277 0.89652,-2.28803 1.75818,-2.46352 3.82142,-2.65644 3.22896,-0.30187 2.94113,-1.05121 2.68916,-4.31086 -0.14479,-1.86819 -1.09138,-0.84267 -2.68916,-1.0486 -0.80749,-0.10183 -0.70768,-0.53593 -2.123,-0.53593 -1.27094,0 -1.65001,-0.38369 -2.24097,0.53593 -0.85504,1.32647 -1.5326,1.7933 -3.75065,2.09719 -2.99116,0.40882 -1.32764,-0.62871 -1.06151,-1.04859 0.57779,-0.91662 -0.80963,-1.68468 0.51896,-2.12049 0.89552,-0.40783 1.73392,-0.80863 2.68916,-1.04858 0.97445,-0.24685 0.83049,-0.0762 1.0615,-1.0719 0.0808,-0.35984 0.37356,-1.34364 0.54254,-1.58454 0.98864,-1.4134 1.98078,-2.23156 2.75993,-3.77493 0.37136,-0.7327 0.57175,-1.47773 1.08509,-2.12048 2.32231,-2.90375 3.30689,-2.65642 0,-2.65642 -2.51042,0 -5.09021,0.0861 -7.59567,0 -1.27804,-0.044 -0.2419,-2.42547 0,-2.72633 0.70226,-0.86663 2.14564,-0.53596 3.20811,-0.53596 3.9656,0 3.84501,1.00549 3.84501,-2.09718 0,-3.83938 0.36871,-1.00307 3.20811,-2.65643 0.0302,-0.0197 0,-1.45358 0,-1.58453 0,-1.04357 0.41297,-1.5828 -0.51896,-1.67775 -1.14446,-0.11481 -2.60619,-0.0681 -3.75065,0 -1.51469,0.09 0.28732,3.12615 -1.17946,1.67775 -0.69415,-0.68572 -0.68986,-1.12696 -1.06151,-1.67775 -0.9947,-1.4743 -1.32173,-1.95343 -1.79277,-2.56321 0.1011,-0.0689 0.18873,-0.25024 0.18873,-0.60586 0,-0.46268 -0.30636,-0.60428 -0.73127,-0.62916 l 0.18871,-0.39613 -1.62765,-1.02529 -0.99073,-0.37284 -1.2974,-1.70104 -4.29321,-2.40011 -6.55775,-3.93804 -6.34545,-3.68172 -7.38338,-2.3069 z"
     id="s_fernando"
     style="fill:#cedae0;fill-opacity:1;fill-rule:evenodd;stroke:none" />
  <path
     d="m 192.45707,297.23152 -3.70348,2.56322 -10.35559,6.92069 2.94864,5.63909 -3.58554,4.98663 0,7.31683 -4.43475,0.39614 -7.59567,9.18099 -0.2123,5.8255 -23.40033,12.72289 1.03792,2.70305 1.0615,4.80021 -2.94862,2.09719 0.21229,6.03521 1.03792,0.41944 0.4246,3.96135 c 0,0 5.70987,7.48766 5.92085,8.73825 0.21101,1.25057 0.4246,4.59049 0.4246,4.59049 l 6.10958,10.22959 9.50638,2.2836 3.16094,-5.63909 4.01012,-2.07388 c 1.05499,0.41686 4.43476,0.20972 4.43476,0.20972 l 6.74645,4.17106 5.04807,0 1.9107,1.235 1.48611,0 0.0943,-0.0467 0.11794,0.32623 14.62521,5.26625 c 0.53001,-0.89124 1.88713,-1.81602 1.88713,-2.98266 0,-8.41449 1.60405,-15.94604 1.60405,-24.42051 0,-1.93717 -1.19249,-7.40713 -2.75992,-8.01589 -1.21428,-0.4728 -0.89315,-1.38287 -0.73126,-3.09916 0.23721,-2.51239 -1.88649,-1.61211 -1.67482,-1.49133 -3.56589,0.001 -2.8063,0.14063 -2.94863,0 -1.48141,-1.4634 3.75754,-1.68318 0.35383,-1.93408 -2.8859,-0.21299 -5.18469,0.95415 -4.2932,-3.09916 0.0506,-0.24149 0.0538,-0.34718 0.0943,-0.44274 -0.0911,0.006 -0.25184,-0.0628 -0.44819,-0.25632 -0.13965,-0.13908 -0.0506,-1.91208 0,-1.93407 1.51582,-0.72369 3.45334,0.73131 4.29321,0.79227 0.6567,0.047 1.59934,-1.97004 2.31172,-2.3069 2.12296,-1.00256 2.51811,0.102 4.19885,1.1651 3.18333,2.01715 0.80203,-6.88868 0.80203,-8.03919 -1.69794,-0.55976 -1.52015,-0.34974 -0.80203,-1.93407 0.80142,-1.76527 0.80203,-1.48752 0.80203,-3.07586 0,-2.47697 -5.44908,1.41354 -5.44908,-2.30691 0,-1.24447 0.11223,-2.54145 0,-3.77492 -0.0911,-1.03456 -0.80424,0.0811 -1.15585,-0.37283 -0.98458,-1.26449 1.75313,-1.07081 2.31172,-1.14181 1.72424,-0.22088 1.48808,-3.72847 1.17946,-5.00992 -0.43717,-1.81924 0.11618,-2.49915 1.60404,-3.00597 0.73766,-0.25078 1.86355,-0.65291 1.86355,-1.58453 0,-3.77142 0.38297,-3.63355 -1.86355,-6.43136 -2.72605,-3.39259 -0.46323,-5.86975 -1.15585,-6.96731 -3.88605,-6.92329 -0.12561,-9.30053 -6.62852,-9.53051 -1.5138,1.14752 -3.02372,-0.0152 -3.11377,-1.49133 -0.21646,-3.50653 -6.33412,2.08214 -4.36397,-2.16708 z"
     id="s_marina"
     style="fill:#cedae0;fill-opacity:1;fill-rule:evenodd;stroke:none" />
  <path
     d="m 176.06668,392.89978 -4.01013,0.39613 c -0.84399,0.20844 -2.95256,0.63688 -3.58554,1.88746 -0.63299,1.25058 -3.39683,8.55184 -3.39683,8.55184 l -2.94862,1.44473 -2.31173,1.46802 0.2123,3.33219 -1.27382,1.46804 0.21232,3.33217 -2.73634,1.04859 0.42461,18.94455 1.46252,1.46803 0,8.34212 6.55775,10.62571 3.58553,-6.66437 5.89727,-3.96134 4.22244,0.62914 4.64704,12.90932 2.31172,0.20972 1.06152,-1.65445 2.31172,0 4.24603,4.49729 1.39176,2.07388 8.61,0 c 0.13655,-1.80573 0.47267,-3.64076 1.39175,-5.8954 1.71719,-4.21326 9.89622,-33.07649 5.44906,-37.46964 0,-2.08614 -0.57072,-6.77003 0,-8.80816 0.32582,-1.16041 1.38667,-5.52605 0.35384,-6.45466 -1.21125,-1.09054 -3.1104,0.0521 -3.84501,-0.79227 l -14.64879,-5.10313 -2.31173,0 -1.48612,-1.67775 -6.53416,0 -5.26036,-4.14776 z"
     id="aldama"
     style="fill:#cedae0;fill-opacity:1;fill-rule:evenodd;stroke:none" />
</svg>
