<?xml version="1.0" encoding="UTF-8" standalone="no"?>
<svg
   xmlns:dc="http://purl.org/dc/elements/1.1/"
   xmlns:cc="http://creativecommons.org/ns#"
   xmlns:rdf="http://www.w3.org/1999/02/22-rdf-syntax-ns#"
   xmlns:svg="http://www.w3.org/2000/svg"
   xmlns="http://www.w3.org/2000/svg"
   xmlns:sodipodi="http://sodipodi.sourceforge.net/DTD/sodipodi-0.dtd"
   xmlns:inkscape="http://www.inkscape.org/namespaces/inkscape"
   version="1.1"
   width="260"
   height="500"
   id="svg6359"
   inkscape:version="0.48.1 r9760"
   sodipodi:docname="regiones.svg">
  <sodipodi:namedview
     pagecolor="#ffffff"
     bordercolor="#666666"
     borderopacity="1"
     objecttolerance="10"
     gridtolerance="10"
     guidetolerance="10"
     inkscape:pageopacity="0"
     inkscape:pageshadow="2"
     inkscape:window-width="1366"
     inkscape:window-height="711"
     id="namedview12"
     showgrid="false"
     inkscape:zoom="0.93938961"
     inkscape:cx="135.6383"
     inkscape:cy="244.68085"
     inkscape:window-x="0"
     inkscape:window-y="23"
     inkscape:window-maximized="1"
     inkscape:current-layer="svg6359" />
  <defs
     id="defs6361" />
  <metadata
     id="metadata6364">
    <rdf:RDF>
      <cc:Work
         rdf:about="">
        <dc:format>image/svg+xml</dc:format>
        <dc:type
           rdf:resource="http://purl.org/dc/dcmitype/StillImage" />
        <dc:title />
      </cc:Work>
    </rdf:RDF>
  </metadata>
  <path
     inkscape:connector-curvature="0"
     style="fill:#cddae0;fill-opacity:1"
     id="fronteriza"
     d="m 30.811949,0 -1.28199,2.75391 -8.285456,7.12217 -11.2530267,1.68558 4.0358957,5.88766 5.531551,0.61725 4.866815,5.27041 4.463226,-0.42733 1.28199,9.44874 -0.973363,4.41574 -0.04748,0.18993 -0.04748,0.23741 0.85466,0.83091 8.902711,17.85291 -5.294145,11.13432 -2.540241,2.32658 2.753906,2.73016 7.430796,2.30284 3.181235,4.41574 -5.721476,13.43716 5.507811,0.21366 14.220597,8.61783 0.42733,3.34742 0.213665,1.89924 -2.54024,6.93225 2.96757,12.8199 6.362471,0.42733 10.635771,5.24667 1.25825,1.25825 1.068326,7.76316 1.70932,9.04515 12.083946,-4.20207 1.281991,1.04458 8.499115,8.83149 1.89925,0 4.89055,-5.88766 5.74522,-0.21367 1.68558,0 9.78111,0.42733 1.47192,1.04459 3.82223,48.52571 16.35724,0.21367 5.31789,2.51649 6.57614,-4.41574 4.24956,1.68558 1.68558,0.21367 19.53848,5.67399 1.92299,1.04458 16.92702,10.18471 -0.095,0.40359 1.28199,0.80718 c 0.59489,-0.007 1.27299,0.39891 1.87551,0.61725 0.0155,0.005 0.0321,0.0182 0.0475,0.0238 l 0.56977,0.35611 -0.0238,-0.23741 c 0.37383,0.006 0.69542,-0.19092 0.90215,-0.78343 0.40122,-1.14858 -0.54604,-1.9181 -0.54604,-3.2762 0,-2.49758 0.69333,-2.65894 2.80139,-2.65894 0.85445,0 3.15351,-0.27494 3.77475,0 1.11309,0.49371 1.32206,2.22512 1.61436,3.18123 0.73934,2.41396 0.90275,2.22798 2.68268,2.75391 1.06944,0.31634 0,1.3488 0,2.68268 0.12934,0.0585 2.86132,2.03951 3.32368,0.52229 0.54482,-1.78523 -1.93457,-3.75101 0.54603,-3.75101 1.09376,0 4.81982,0.38486 5.38911,0 0.29839,-0.20159 0,-0.78086 0,-1.13955 0,-1.07699 0.3432,-2.18542 0,-3.20497 -0.0917,-0.28007 -1.47689,0.60369 -1.61436,-1.04458 -0.31165,-3.71461 4.78836,-1.04639 6.00636,0.52229 0.66195,0.85534 -2.18772,3.99623 -2.68268,4.2733 -0.63344,0.35264 -1.18703,1.22455 -1.18703,2.20787 0,1.3329 0.641,1.03287 0.641,2.65894 -0.18854,3.36603 -0.78363,11.33814 -2.77765,12.91487 -1.45833,1.15357 -1.09206,2.77928 -1.09206,4.86682 0,3.49495 -3.22604,7.98428 -5.38911,10.73073 -1.86468,2.36558 -1.16329,13.64292 -1.16329,17.78168 2.52266,-2.49555 3.19191,-2.9425 1.16329,-5.41284 -0.56624,-0.69017 0.51444,-1.8324 0.54603,-2.13666 0.16815,-1.62104 -0.64771,-5.59501 0,-7.00346 0.831,-1.81148 2.6199,-4.38691 3.77475,-6.40996 1.4838,-2.59931 2.61263,-3.21306 4.29704,-5.43659 6.86602,-8.24833 14.19686,-29.50414 14.19686,-36.06191 0,-17.62198 15.26518,-24.42392 15.26518,-40.33522 0,-5.7638 -0.0984,-10.71999 -0.35611,-15.19396 -5.06051,0.73341 -10.78316,2.71603 -13.36593,4.7956 -2.52185,-0.0383 -5.29243,-0.004 -5.74522,0.33236 -0.50528,0.3749 -1.52333,1.22261 -2.3978,1.94673 -0.60684,0.0647 -1.12271,0.24638 -1.47191,0.66474 -0.10277,0.12305 -0.20589,0.21572 -0.30863,0.33237 l -3.03879,0 -0.59352,2.8726 c -4.50037,2.0764 -8.80842,-1.16287 -12.32135,-6.1488 -4.55825,-6.47135 -16.02994,-6.10808 -25.80599,-6.00637 l -7.57324,-1.66184 -2.11291,0.23741 -16.57091,0 -1.68558,-0.42733 -5.53155,-0.42733 -10.8257,-7.5495 -2.96757,-0.42733 -8.71278,-5.46033 -1.49566,-0.42733 -6.14881,0 -10.1847,-4.60567 -0.85466,-0.641 -8.07179,-6.10132 -6.7898,-0.18992 -6.599873,-2.54025 -2.11291,0.21367 -2.96757,-2.08917 -4.463226,0.61726 -0.85466,-1.25825 0,-6.50492 -2.753906,-1.25825 -2.96757,-6.10132 -0.42733,-1.25825 L 74.114669,80.88416 59.253077,62.60393 59.039412,50.42502 52.890606,37.81878 52.676941,36.56053 49.495706,31.74119 51.394951,30.05561 50.967621,12.81996 42.06491,4.20214 39.714594,4.41581 32.924793,6e-5 z" />
  <path
     inkscape:connector-curvature="0"
     style="fill:#cddae0;fill-opacity:1"
     id="san_fernando"
     d="m 160.4829,199.58692 -6.57614,4.41574 -5.74521,-2.5165 -4.67689,-0.42733 0.42733,2.73017 -3.82223,5.033 -2.75391,0.85466 -29.29585,26.25706 -1.47192,1.40069 -2.56398,-0.14244 -0.85466,1.89924 -3.608563,0 -4.676891,-4.62941 -5.531551,5.033 -2.54024,-0.40359 -6.576136,7.97684 5.721476,9.6624 4.463225,1.25825 6.362471,-3.1575 6.599879,9.66241 2.96757,1.06833 13.5796,2.08917 2.56398,0.21367 4.67689,5.03299 -0.42733,2.32658 -3.60856,5.65026 3.3949,5.05674 0.42733,3.34742 3.18123,2.73016 25.90095,4.01215 5.31789,0.18993 4.34452,-4.39794 2.01795,1.47785 4.89056,3.98841 7.85812,0.641 0.21367,2.92009 -1.49566,1.47191 0,2.94383 12.74868,-9.04515 0.16619,-0.45107 2.37405,0.26114 0.71222,-0.26114 c 0.58951,-2.11779 0.92238,-6.81355 1.82802,-6.81355 5.33696,0 5.24885,5.08744 6.24377,9.7099 l 0.92588,0.26114 c 0.056,-0.12237 0.17647,-0.35812 0.18993,-0.37984 1.66507,-2.63457 -2.1132,-3.67089 1.51939,-7.26462 8.72053,0.84832 1.64679,8.3429 2.5165,11.44295 0.95219,3.39524 1.23144,3.86412 1.61436,7.54951 0.0816,0.77376 0.54604,0.74532 0.54604,2.13665 0,4.28082 2.25535,2.64926 2.25535,5.95888 0,6.63936 1.79466,16.58325 2.68268,4.24956 0.4807,-6.67865 -3.77475,-10.70391 -3.77475,-18.28024 0,-2.15905 1.98142,-1.19299 2.70643,-3.75101 2.04595,-7.2126 -1.37953,-13.22567 2.16039,-18.82627 0.39923,-0.63171 2.13665,-7.56197 2.13665,-8.61782 0,-3.51613 -1.53736,-4.99356 -4.84308,-2.7539 -1.43695,0.97223 -1.81414,11.39411 -2.16039,14.03067 -0.3544,2.69806 -3.84597,0.94687 -3.84597,-3.20498 0,-6.97987 3.84597,-4.74807 3.84597,-10.3034 0,-1.33388 -3.08233,-3.47782 1.09207,-4.24956 1.89624,-0.35062 3.77475,-2.16688 3.77475,-4.36826 -2.19158,-0.13507 -2.91943,0.75625 -3.25246,-1.06833 -0.12416,-0.67806 -0.39599,-1.91057 -0.52229,-0.52229 -0.0304,0.36574 0.0816,3.21069 0,3.27619 -0.98275,0.82715 -1.79808,0.14935 -2.25535,-1.04458 -0.4695,-1.23015 -1.62427,-4.01502 -1.06833,-5.43659 0.90228,-2.30613 1.76946,-2.48824 3.84597,-2.68268 3.24969,-0.30426 2.96001,-1.05908 2.70643,-4.34452 -0.14572,-1.88296 -1.09838,-0.83703 -2.70643,-1.04459 -0.81269,-0.10264 -0.71223,-0.54604 -2.13665,-0.54604 -1.2791,0 -1.66061,-0.38086 -2.25535,0.54604 -0.86054,1.33695 -1.54245,1.80661 -3.77475,2.11291 -3.01037,0.41205 -1.33617,-0.64512 -1.06833,-1.06832 0.5815,-0.92388 -0.81483,-1.69742 0.5223,-2.13666 0.90127,-0.41106 1.74506,-0.80272 2.70642,-1.04458 0.98072,-0.24881 0.83583,-0.0884 1.06832,-1.09207 0.0813,-0.36269 0.37597,-1.34781 0.54604,-1.59061 0.99499,-1.42458 1.9935,-2.24292 2.77764,-3.79849 0.37376,-0.73852 0.57544,-1.48883 1.09207,-2.13666 2.33722,-2.92672 3.32813,-2.68268 0,-2.68268 -2.52654,0 -5.1229,0.0867 -7.64446,0 -1.28624,-0.0443 -0.24345,-2.45066 0,-2.75391 0.70678,-0.87346 2.15942,-0.54603 3.22871,-0.54603 3.99108,0 3.86972,1.0143 3.86972,-2.11291 0,-3.86976 0.37107,-0.9925 3.22871,-2.65894 0.0305,-0.0199 0,-1.48237 0,-1.61436 0,-1.05181 0.41562,-1.58987 -0.52229,-1.68558 -1.15182,-0.11572 -2.62294,-0.0685 -3.77475,0 -1.52441,0.0907 0.28916,3.14544 -1.18703,1.68558 -0.69861,-0.69113 -0.69429,-1.13044 -1.06832,-1.68558 -1.00109,-1.48597 -1.33023,-1.9731 -1.80429,-2.58772 0.10175,-0.0694 0.18993,-0.25882 0.18993,-0.61726 0,-0.46634 -0.30832,-0.59217 -0.73596,-0.61725 l 0.18993,-0.40359 -1.6381,-1.04458 -0.99711,-0.37986 -1.32947,-1.68557 -4.29704,-2.42154 -6.59988,-3.98841 -6.38621,-3.70353 -7.43079,-2.32658 -2.11291,-0.42733 z" />
  <path
     inkscape:connector-curvature="0"
     style="fill:#cddae0;fill-opacity:1"
     id="centro"
     d="m 96.145977,257.15778 c -1.061754,0 -5.745217,2.73017 -5.745217,2.73017 l -5.50781,-2.11291 -4.676891,0.42733 0,8.19049 -0.640995,1.55797 -6.148806,-5.54638 -4.890555,5.24666 -6.789801,4.62941 -1.922986,1.04458 -9.543706,6.93225 -10.849437,2.73016 -1.471914,4.81934 -2.136651,1.89925 0.640995,1.89924 6.789801,2.30284 1.922985,-0.61726 0,3.77475 2.540241,4.41574 0.42733,1.47192 -6.789801,24.35782 5.50781,5.67399 0.427331,2.08917 6.386211,0.85466 0.42733,5.033 0.403589,1.68558 -0.213665,1.89924 c 0,0 4.249561,2.10352 4.249561,2.94384 0,0.84031 0.42733,3.77475 0.42733,3.77475 l 1.709321,2.51649 5.294145,1.68559 1.70932,-2.11292 2.11291,0.42733 4.676891,2.51651 -0.640995,2.1129 -1.471915,1.04459 0.640995,5.033 4.035896,5.46033 1.25825,18.06656 5.531551,1.89925 0,2.11291 -0.640995,9.44874 1.70932,1.25826 -0.213665,1.47191 -4.890556,10.27967 8.071791,3.79849 4.249561,-3.1575 3.82223,0 6.148809,-4.20208 c 0,0 4.46849,3.98842 5.31788,3.98842 0.84941,0 6.36247,0.64099 6.36247,0.64099 l 6.7898,5.24666 6.78981,2.51651 8.07179,0.42733 -0.42733,-2.94384 3.82223,-2.30283 7.64446,-3.37116 0,-2.11291 2.35031,-1.87551 1.47192,-1.25824 4.89055,10.06599 0,-5.03299 3.3949,-1.04459 -0.21366,-2.73017 0.64099,-1.47191 0,-3.37116 5.95889,-3.56108 0.64099,-2.5165 0,-0.85466 3.18124,-5.674 4.03589,-2.08917 c 1.06176,0.42016 4.46323,0.21366 4.46323,0.21366 l 6.7898,4.20209 5.08048,0 1.92298,1.2345 1.49566,0 0.095,-0.0475 0.1187,0.33237 14.71915,5.31789 c 0.53341,-0.8983 1.89925,-1.83919 1.89925,-3.01506 0,-8.48104 1.61436,-16.07746 1.61436,-24.61896 0,-1.9525 -1.20014,-7.45821 -2.77765,-8.07179 -1.22208,-0.47654 -0.89889,-1.40388 -0.73596,-3.13375 0.23874,-2.53227 -1.8986,-1.61738 -1.68558,-1.49566 -3.5888,0.002 -2.82433,0.14175 -2.96757,0 -1.49093,-1.47496 3.78168,-1.69384 0.35611,-1.94673 -2.90445,-0.21468 -5.218,0.95162 -4.32078,-3.13375 0.0509,-0.24339 0.0542,-0.33102 0.095,-0.42733 -0.0917,0.006 -0.25345,-0.0661 -0.45107,-0.26115 -0.14055,-0.14017 -0.0509,-1.92456 0,-1.94672 1.52556,-0.72942 3.47553,0.722 4.32078,0.78344 0.66093,0.0474 1.60963,-1.98705 2.32658,-2.32658 2.1366,-1.0105 2.53427,0.11551 4.22582,1.18703 3.20377,2.03311 0.80718,-6.93592 0.80718,-8.09553 -1.70884,-0.56419 -1.52991,-0.37361 -0.80718,-1.97047 0.80657,-1.77924 0.80718,-1.48537 0.80718,-3.08627 0,-2.49655 -5.48407,1.4233 -5.48407,-2.32658 0,-1.25432 0.11295,-2.55526 0,-3.79849 -0.0917,-1.04274 -0.80941,0.0777 -1.16329,-0.37985 -0.99089,-1.27448 1.7644,-1.09173 2.32657,-1.16328 1.73532,-0.22264 1.49764,-3.74141 1.18703,-5.033 -0.43997,-1.83363 0.11694,-2.52798 1.61436,-3.0388 0.74239,-0.25276 1.87551,-0.65162 1.87551,-1.59061 0,-3.80126 0.38543,-3.66123 -1.87551,-6.48118 -2.74356,-3.41943 -0.46622,-5.92097 -1.16329,-7.02721 -3.91101,-6.97806 -0.1264,-9.38312 -6.67109,-9.61492 -1.52353,1.15659 -3.04313,-0.008 -3.13376,-1.49566 -0.21786,-3.53427 -6.39855,2.09871 -4.41574,-2.18413 l -3.70353,2.58772 -10.42211,6.97973 -1.49565,1.04458 0.21366,-6.29125 1.49566,-2.32658 -7.21713,-0.40358 -5.74522,-5.05675 -4.03589,4.20209 -5.29415,0 -21.6692,-3.6145 -5.37735,-0.89721 -2.27304,-1.77954 -2.75391,-2.32658 -0.21366,-3.34741 -4.0359,-5.24667 4.46323,-5.674 0.21366,-1.68558 -4.67689,-4.20208 -16.76084,-2.73016 -2.35031,-1.25825 -5.507813,-7.97683 z" />
  <path
     inkscape:connector-curvature="0"
     style="fill:#cddae0;fill-opacity:1"
     id="sur"
     d="m 177.05381,393.07251 -4.03589,0.40359 c -0.84941,0.21009 -2.97152,0.63877 -3.60857,1.89924 -0.63705,1.26048 -3.41864,8.61783 -3.41864,8.61783 l -2.96757,1.47191 -2.32657,1.47192 0.21366,3.34742 -1.28199,1.49565 0.21366,3.34742 -2.7539,1.06833 0.089,3.93203 -2.01202,1.29089 -5.50781,-9.02141 -1.49565,0.42733 0.21366,3.56108 -12.32135,5.033 1.06833,3.58482 -11.03936,-0.21366 -5.53156,-2.5165 -1.47191,1.87551 -0.42733,10.73073 -1.49566,2.08917 -2.32657,0.21367 -4.24956,3.98841 -0.641,6.52863 3.3949,5.2467 0.42733,4.8193 -1.70932,1.4719 0,3.9885 5.10422,3.1574 8.28546,-3.561 12.96235,3.561 0,3.5611 5.72147,8.4042 -0.42733,5.0567 9.35378,0 1.25825,2.0892 5.95888,-1.0446 -0.48223,-5.9604 1.76423,-0.1409 5.50781,-0.4036 16.78457,8.6178 1.47192,1.8755 9.56744,11.1344 5.50782,0.4273 0.85466,-2.1129 0.64099,-1.4719 3.82223,-2.5165 -0.7597,-6.9085 -0.30862,-1.3533 c -0.37884,-4.3113 -0.0769,-9.7056 -0.28489,-12.8673 -0.19315,-2.9357 -0.42052,-5.1791 -0.23741,-7.4546 l 0,-1.3295 c 0.13743,-1.82 0.47571,-3.6626 1.4007,-5.9351 1.72822,-4.2466 9.95978,-33.34333 5.48407,-37.77123 0,-2.10264 -0.5744,-6.82471 0,-8.87897 0.32791,-1.16959 1.39556,-5.56896 0.3561,-6.50491 -1.21903,-1.09916 -3.13037,0.044 -3.86971,-0.80718 l -14.74289,-5.12796 -2.32657,0 -1.49566,-1.70933 -6.57613,0 z" />
  <path
     inkscape:connector-curvature="0"
     style="fill:#cddae0;fill-opacity:1"
     id="altiplano"
     d="m 57.496341,352.52363 -5.745216,6.10132 -8.071791,-0.42733 -1.685542,0.21367 -4.890555,-0.42733 -8.499122,4.41574 -2.54024,0.21367 -0.85466,4.20208 -5.104221,11.75158 -1.25825,1.68558 -2.777646,2.5165 c 0,0 5.104221,5.47467 5.104221,6.31499 0,0.84031 -0.213665,4.392 -0.213665,4.392 l -4.890556,1.06832 -12.5112759,-0.21366 -1.9230235,1.68558 4.0358956,3.13375 -0.4273301,9.87608 -1.4719149,3.98841 4.8668532,4.84308 0.6409572,1.68558 1.9230234,2.94383 0,4.392 -1.4956932,1.47192 0.213703,4.84307 -4.2495986,3.37116 5.3179238,3.34742 1.25825,3.37116 0.213665,10.27962 14.458002,0.4274 0.617255,2.3028 0,4.2021 7.027206,1.4719 6.148806,-1.6856 3.608565,0 c 0,0 2.11816,3.3748 2.967571,3.5848 0.849365,0.2101 2.777607,-0.6409 2.777607,-0.6409 l 1.471915,1.8992 4.035896,0.2137 0.42733,-5.2467 -2.96757,-5.674 -0.213665,-9.25881 0.85466,-1.25825 0,-9.02142 3.3949,-4.41574 -0.42733,-9.66241 -0.09895,-3.01065 2.21186,0.89774 8.071791,3.79849 1.709321,-6.52866 9.543706,-2.08917 5.104221,-10.92066 -1.709321,-0.85466 0.42733,-11.53791 -4.866815,-1.89925 -1.28199,-18.49389 -4.463226,-4.81934 -0.640995,-5.88766 1.922985,-2.30283 -3.608565,-2.54024 -2.350316,2.32657 -7.430796,-2.32657 z" />
  <path
     inkscape:connector-curvature="0"
     style="fill:#cddae0;fill-opacity:1"
     id="mante"
     d="m 101.86745,412.82466 -5.104219,3.56108 -3.82223,0 -3.822231,2.94383 -1.899245,0.42733 -8.712786,-4.20208 c -0.849411,0.21008 -9.330041,1.03519 -9.330041,1.87551 0,0.84031 -1.495655,7.14591 -1.495655,7.14591 l -1.709321,-0.42733 -7.834385,-3.98842 0.189924,11.56166 -2.96757,3.37116 -0.213665,9.02141 -0.85466,2.11291 0.213665,6.29129 2.350315,-2.0892 2.326575,3.1337 2.777646,3.7985 1.471915,2.9201 4.249561,0.8547 1.495655,-0.8547 2.96757,4.4158 0.42733,1.6855 6.362471,13.0336 0.42733,3.5611 8.071791,0.2137 c 0,0 2.33184,3.1575 3.181236,3.1575 0.84941,0 4.035895,-0.2137 4.035895,-0.2137 l 1.709321,-0.4273 9.757368,0.2136 1.49566,0.641 6.1488,0.8309 18.2565,-3.7747 10.20844,0 0.40359,-4.8431 -6.14881,-8.6178 0,-2.9438 -11.03936,-3.3475 -8.28546,3.9885 -7.00346,-3.5611 0,-5.4604 2.32657,-1.8992 -0.42733,-3.5848 -3.60856,-4.8194 -0.40359,-1.47187 1.47191,-6.93224 4.46323,-4.84308 1.89924,0.21367 1.28199,-1.68558 0.21367,-9.66241 1.49565,-2.5165 -5.10422,-4.41575 -6.7898,-0.83092 z" />
</svg>
